<?xml version="1.0" encoding="utf-8"?>
<!-- Generator: Adobe Illustrator 24.0.0, SVG Export Plug-In . SVG Version: 6.00 Build 0)  -->
<svg version="1.1" id="Warstwa_1" xmlns="http://www.w3.org/2000/svg" xmlns:xlink="http://www.w3.org/1999/xlink" x="0px" y="0px"
	 viewBox="0 0 544.9 193" style="enable-background:new 0 0 544.9 193;" xml:space="preserve">
<g id="_x23_000000ff">
	<path d="M0.1,20.8c14.6,0,29.1-0.1,43.7,0c10,0.3,21.1,3.9,26.2,13.2c5.1,9.8,4.4,23.3-3.9,31.2c-3.1,3-7,4.8-11.1,6
		c10.2,1.9,18.6,10.6,20.1,20.9c1.9,11.2-3,23.7-13.6,28.7c-6,3.1-12.9,4.1-19.6,4c-13.9,0-27.8,0-41.8,0
		C0.1,90.1,0.1,55.4,0.1,20.8 M17.1,34.8c0,10.3-0.1,20.5,0.1,30.8c6.5-0.1,13.1,0,19.6,0c4.7-0.1,9.8-0.7,13.6-3.8
		c5.7-4.5,6.5-13.3,3.3-19.5c-2.8-5.3-9.2-7.5-14.9-7.5C31.6,34.8,24.4,34.7,17.1,34.8 M17.1,77.8c0,11,0,22,0,33
		c6.9,0,13.9,0,20.8,0c5.3-0.1,10.9-1,15.1-4.6c5.5-4.7,6.3-13.3,3.2-19.6c-2.6-5.3-8.6-8-14.3-8.5C33.6,77.5,25.4,77.8,17.1,77.8z"
		/>
	<path d="M409.9,23.3c5.7,0,11.5,0,17.2,0c0.1,6.8-0.1,13.5,0.1,20.3c6.5-0.2,12.9,0,19.4-0.1c0,4.8,0,9.7,0,14.5
		c-6.5,0-13,0-19.5,0c0,13.7,0,27.4,0,41c0.1,3.7,1,8.2,4.8,9.8c4.7,1.8,9.9,0.9,14.9,1.1c0,4.9,0,9.8,0,14.8
		c-8.4-0.2-17.2,1-25-2.7c-4.9-2.2-8.6-6.6-10.2-11.7c-2.3-7.2-1.7-14.9-1.8-22.3c0-10,0-20,0-30c-3.8,0-7.7,0-11.5,0
		c0-4.8,0-9.7,0-14.5c3.8,0,7.7,0,11.5,0C409.9,36.7,409.8,30,409.9,23.3z"/>
	<path d="M110.3,49.5c8.8-6.2,20-7.9,30.5-6.6c8.4,0.9,16.6,4.6,22.7,10.6c8.8,8.8,11.8,22,9.8,34.1c-20.8-0.1-41.6,0-62.4-0.1
		c0.2,6,1.5,12.4,5.6,17c7.6,8.7,21.8,9.8,31.1,3.3c4-2.6,6.3-7,7.5-11.5c6.1,0,12.1,0,18.1,0c-1.7,9-6.8,17.4-14.5,22.5
		c-9.3,6.5-21.2,8.1-32.3,6.4c-10.3-1.6-20-7.3-25.6-16.2c-6.2-9.5-7.7-21.4-6.2-32.5C95.9,65.9,101.4,55.6,110.3,49.5 M117.5,62.7
		c-4.6,4.4-6.3,10.9-6.7,17.1c15.3,0,30.6,0,45.8,0c0.5-7.5-2.3-15.5-8.7-19.8C138.7,54.1,125.4,54.8,117.5,62.7z"/>
	<path d="M209.8,48c9.1-5.9,20.8-6.9,31.1-3.9c8.4,2.5,15.1,9.2,18.5,17.2c-0.1-5.9-0.1-11.9-0.1-17.8c5.7,0,11.3,0,17,0
		c0,27.1,0.1,54.2-0.1,81.3c-5.7-0.1-11.3,0.1-17-0.1c0.1-5.9,0-11.9,0.1-17.8c-3.5,8.7-11.3,15.7-20.5,17.8
		c-10.1,2.3-21.2,0.9-29.9-4.9c-7.4-5-12.2-13.1-14.5-21.6c-2.1-8.6-2.2-17.7-0.4-26.3C196.2,62.4,201.5,53.3,209.8,48 M228,58.2
		c-8.4,1.9-14.9,9.1-16.7,17.4c-1.9,9-1.2,19.5,4.9,26.9c9,11.1,28.1,10.9,37.1-0.2c9.2-11.3,8.2-30.2-3.1-39.7
		C244,57.7,235.5,56.4,228,58.2z"/>
	<path d="M301.9,43.5c5.7,0,11.3,0,17,0c0,15.5,0,31,0,46.5c0,6,1.8,12.5,6.4,16.7c7.3,6.4,18.9,6.7,26.8,1.5
		c6.3-4.1,9.1-11.9,9.3-19.1c0-15.2,0-30.3,0-45.5c5.7,0,11.4,0,17.2,0c0.2,27.1,0,54.2,0.1,81.3c-5.8,0-11.5,0.1-17.3-0.1
		c0.1-5.4,0-10.8,0.1-16.2c-2.8,6.1-7.4,11.5-13.7,14.3c-7.9,3.7-17.2,4-25.5,1.6c-8.9-2.7-16-10.3-18.5-19.2
		c-2.5-7.5-1.8-15.4-1.8-23.2C301.9,69.2,301.8,56.3,301.9,43.5z"/>
	<path d="M460.3,43.5c6.4,0,12.8,0,19.2,0c7.9,19.7,16,39.4,24,59.1c7.7-19.6,15-39.3,22.3-59c6.3-0.3,12.7,0,19-0.1
		c-16.1,40-32.6,79.8-48.9,119.8c-6.3,0-12.7,0-19,0c5.8-13.5,11.6-26.9,17.5-40.4C483.1,96.3,471.6,70,460.3,43.5z"/>
	<path d="M9.3,139.5c6.4-2.8,15-2.1,20,3.1c2,2,3.1,4.5,4.1,7.1c-1.6,0-3.2,0-4.8,0c-2.9-8.2-15.1-10.4-20.6-3.7
		c-5.1,6.4-4.4,17.6,2.9,22.1c6.3,3.5,15.2,0.7,17.8-6.2c1.6,0,3.2,0.1,4.7,0.1c-1.6,4.7-5,9.1-9.8,10.7c-5.4,1.8-11.8,1.5-16.5-1.9
		C-3.2,163.6-2.2,145.1,9.3,139.5z"/>
	<path d="M92.1,138.3c1.5,0,3,0,4.5,0c0,5.1,0,10.2,0,15.2c5.9,0,11.8,0,17.7,0c0-5.1,0-10.1,0-15.2c1.5,0,3.1,0,4.6-0.1
		c0.2,11.8,0,23.5,0.1,35.3c-1.6,0-3.2,0-4.7,0c0-5.4,0-10.8,0-16.2c-6,0.1-11.9-0.2-17.9,0.2c0.1,5.4,0.2,10.8,0,16.1
		c-1.5,0-2.9-0.1-4.4-0.1C92.1,161.7,92.1,150,92.1,138.3z"/>
	<path d="M178.9,138.3c6.4,0,12.8,0,19.2,0c0,1.3,0,2.5,0,3.7c-4.9,0-9.8,0-14.7,0c0,4,0,8,0,12c4.4,0,8.8,0,13.3,0
		c0,1.2,0,2.3,0,3.5c-4.4,0-8.8,0-13.2,0c0,4.1,0,8.2,0,12.3c4.9,0,9.8,0,14.7,0c0,0.9,0,2.8,0,3.7c-6.4,0-12.8,0-19.3,0
		C178.9,161.8,178.8,150,178.9,138.3z"/>
	<path d="M260.9,142.1c4.5-4.4,11.4-4.9,17.2-3.4c5.2,1.4,8.9,6,10.6,11c-1.6,0-3.2,0-4.8,0.1c-2.9-7.8-13.9-10.3-19.9-4.6
		c-5.2,5.3-5.4,14.6-0.9,20.4c5.5,6.8,17.8,4.7,20.7-3.6c1.6,0,3.2,0,4.8,0c-1.6,4.7-5,9.1-9.9,10.7c-5.2,1.7-11.3,1.4-16-1.6
		C253.4,164.9,252.8,149.6,260.9,142.1z"/>
	<path d="M347.4,138.2c1.5,0,3,0,4.5,0c0,5.4,0,10.9,0,16.3c4.8-5.5,9.8-10.8,14.5-16.3c1.9-0.1,3.8-0.1,5.7-0.1
		c-5.3,5.9-10.8,11.6-16.1,17.5c5.3,6,10.7,11.9,16.1,17.8c-1.8,0-3.7,0-5.5,0.1c-5-5.4-9.8-11-14.8-16.4c0,5.5,0,10.9,0,16.4
		c-1.5,0-3,0-4.5,0C347.4,161.8,347.3,150,347.4,138.2z"/>
</g>
</svg>
