<svg width="593" height="159" viewBox="0 0 593 159" fill="none" xmlns="http://www.w3.org/2000/svg">
    <path fill-rule="evenodd" clip-rule="evenodd" d="M0 155.42C0.644572 155.281 1.29745 155.162 1.95061 155.042C3.32409 154.789 4.69879 154.537 6 154.11C16.71 150.65 22.45 141.81 25.24 130.52C26.7323 124.364 27.5041 118.055 27.54 111.72C27.763 80.537 27.6852 49.3539 27.6073 18.1617L27.6 15.2301C27.5036 13.6738 26.9074 12.1902 25.9 11.0001C21.53 6.00008 16.37 2.59008 10 1.33008C10.6746 1.17116 11.3597 1.06088 12.05 1.00008C14.0678 1.00008 16.0859 0.997679 18.1043 0.995279C26.1791 0.985679 34.2578 0.976074 42.33 1.12008C43.0353 1.21744 43.7101 1.47081 44.3051 1.86175C44.9002 2.2527 45.4006 2.77139 45.77 3.38008C52.776 16.1332 59.7575 28.9031 66.7391 41.6731C77.6151 61.5663 88.4912 81.4597 99.46 101.29C101.13 104.29 100.92 106.29 99.55 108.99C98.1549 111.78 96.8619 114.624 95.5693 117.467C95.0089 118.7 94.4486 119.932 93.88 121.16C92.26 124.65 91.33 124.72 89.44 121.35C76.48 98.1834 63.5 75.0067 50.5 51.8201C43.65 39.6401 36.7 27.5301 29.14 15.5301C29.0124 16.2913 28.9289 17.0592 28.89 17.8301C28.89 25.1161 28.8864 32.4022 28.8829 39.6884V39.6887V39.6891V39.6894V39.6898V39.6901C28.8706 64.6739 28.8584 89.659 28.99 114.65C29.0258 119.763 29.6601 124.855 30.88 129.82C34.42 144.11 42 153.88 56 156H0.08L0 155.42ZM149 5.74009C144.24 15.7401 139.483 25.7401 134.73 35.7401L133.97 35.4401C134.095 34.7273 134.286 34.0276 134.54 33.3501C139.307 23.1701 144.127 13.0134 149 2.88009C149.39 2.07009 150.39 1.09009 151.11 1.08009C158.17 1.01342 165.235 1.03565 172.298 1.05787C175.83 1.06898 179.36 1.08009 182.89 1.08009C182.977 1.08009 183.068 1.16478 183.236 1.32223L183.236 1.32229L183.236 1.32245L183.236 1.32254L183.237 1.32285C183.34 1.41907 183.472 1.54239 183.65 1.69009C183.001 1.94574 182.332 2.14645 181.65 2.29009C174.16 3.22009 170.73 6.96009 170.02 15.2901C169.71 19.0601 169.53 22.8601 169.52 26.6501C169.48 62.2701 169.48 97.8901 169.52 133.51C169.52 136.633 169.72 139.753 170.12 142.85C171.12 150.73 174.34 154.09 181.47 155.06C181.827 155.089 182.174 155.192 182.487 155.365C182.801 155.537 183.075 155.774 183.29 156.06H136.14C136.331 155.857 136.466 155.696 136.566 155.576C136.717 155.395 136.792 155.306 136.87 155.3C147.27 154.51 148.87 148.12 149.52 139.71C149.868 135.114 149.852 130.483 149.836 125.858V125.857V125.857C149.833 124.897 149.83 123.938 149.83 122.98C149.79 85.1201 149.737 47.2668 149.67 9.42009V5.83009L149 5.74009ZM56.121 76.4816C55.3844 75.2029 54.6346 73.9014 53.88 72.5601C53.5204 73.2414 53.2123 73.7929 52.9376 74.2845C52.6319 74.8318 52.3676 75.3048 52.12 75.8001C47.48 85.0001 45.8 95.0001 46.25 105.45C47.02 123.19 53.11 137.8 66.36 148.19C76.3 156 87.6 158.88 99.47 158.95C111.34 159.02 122.38 155.71 132.09 147.78C133.14 146.831 134.141 145.83 135.09 144.78L134.42 143.95C134.171 144.162 133.923 144.374 133.675 144.586L133.674 144.586L133.674 144.587L133.673 144.587L133.672 144.588C132.845 145.294 132.02 145.998 131.19 146.69C121.2 155.04 110.07 159.55 97.57 157.55C81.15 154.89 71 143.25 64.7 126.89C60.3168 115.4 59.0809 102.948 61.12 90.8201C61.1589 90.5793 61.2031 90.3293 61.2483 90.0741C61.5052 88.6232 61.7917 87.0046 61.29 85.9501C59.7379 82.7602 57.9711 79.693 56.121 76.4816ZM133.41 43.1902V81.1902C130.46 68.3102 124.29 58.1902 113.49 52.3202C102.69 46.4502 91.79 46.7602 80.78 52.1702L80.54 51.0002C80.7464 50.8955 80.9527 50.785 81.1588 50.6747L81.159 50.6747L81.1591 50.6746L81.1592 50.6745L81.1594 50.6745C81.6222 50.4268 82.0835 50.18 82.54 50.0002C92.87 46.0002 103.33 46.6002 113.84 48.9102C116.109 49.4116 118.37 49.9523 120.63 50.4929L120.631 50.4929C121.977 50.8148 123.323 51.1367 124.67 51.4502C130.45 52.8102 131.67 51.8102 132.6 45.2102C132.641 44.8874 132.677 44.5646 132.713 44.2405L132.713 44.2397L132.713 44.2365C132.747 43.9294 132.781 43.6209 132.82 43.3102L133.41 43.1902ZM116.5 71.8101C114.5 76.0834 112.5 80.3601 110.5 84.6401L111.16 85.0001L117.26 72.2601L116.5 71.8101ZM302.212 55.1817H311.825C311.643 53.0113 311.126 51.0851 310.274 49.4033C309.422 47.7215 308.297 46.3067 306.899 45.159C305.501 43.9999 303.876 43.1192 302.024 42.5169C300.172 41.9147 298.143 41.6135 295.939 41.6135C292.803 41.6135 289.962 42.301 287.416 43.676C284.871 45.0397 282.848 47.0567 281.348 49.7272C279.848 52.3863 279.098 55.659 279.098 59.5453C279.098 63.409 279.831 66.676 281.297 69.3465C282.774 72.0169 284.78 74.0397 287.314 75.4147C289.859 76.7897 292.734 77.4772 295.939 77.4772C298.496 77.4772 300.74 77.0851 302.672 76.301C304.604 75.5169 306.223 74.4828 307.53 73.1988C308.848 71.9033 309.865 70.4942 310.581 68.9715C311.297 67.4374 311.712 65.9317 311.825 64.4544L302.212 64.3863C302.098 65.1363 301.876 65.8124 301.547 66.4147C301.229 67.0056 300.814 67.5113 300.303 67.9317C299.791 68.3522 299.189 68.676 298.496 68.9033C297.803 69.1192 297.018 69.2272 296.143 69.2272C294.609 69.2272 293.297 68.8692 292.206 68.1533C291.115 67.426 290.28 66.3465 289.7 64.9147C289.132 63.4715 288.848 61.6817 288.848 59.5453C288.848 57.5226 289.126 55.7897 289.683 54.3465C290.251 52.9033 291.081 51.7953 292.172 51.0226C293.274 50.2499 294.621 49.8635 296.212 49.8635C297.121 49.8635 297.933 49.9942 298.649 50.2556C299.365 50.5056 299.973 50.8692 300.473 51.3465C300.984 51.8124 301.382 52.3692 301.666 53.0169C301.962 53.6647 302.143 54.3863 302.212 55.1817ZM200.25 42.0908H212.045L220.159 61.8635H220.568L228.682 42.0908H240.477V76.9999H231.205V56.8181H230.932L223.159 76.7272H217.568L209.795 56.6817H209.523V76.9999H200.25V42.0908ZM243.537 42.0908H254.105L260.923 56.2726H261.196L268.014 42.0908H278.582L265.764 66.0226V76.9999H256.355V66.0226L243.537 42.0908ZM316.125 42.0908H325.602V69.3635H339.716V76.9999H316.125V42.0908ZM343.547 76.9999H353.024V42.0908H343.547V76.9999ZM357.516 42.0908H382.675V49.7272H366.993V55.7272H381.379V63.3635H366.993V69.3635H382.607V76.9999H357.516V42.0908ZM409.67 76.9999H417.58V42.0908H408.102V60.3635H407.83L395.42 42.0908H387.375V76.9999H396.852V58.659H397.057L409.67 76.9999ZM421.108 49.7272V42.0908H451.449V49.7272H440.949V76.9999H431.608V49.7272H421.108ZM375.344 106H372.174C371.986 105.088 371.658 104.287 371.189 103.597C370.729 102.906 370.167 102.327 369.502 101.858C368.846 101.381 368.117 101.023 367.316 100.784C366.515 100.545 365.679 100.426 364.81 100.426C363.225 100.426 361.789 100.827 360.502 101.628C359.223 102.429 358.205 103.609 357.446 105.169C356.696 106.729 356.321 108.642 356.321 110.909C356.321 113.176 356.696 115.089 357.446 116.649C358.205 118.209 359.223 119.389 360.502 120.19C361.789 120.991 363.225 121.392 364.81 121.392C365.679 121.392 366.515 121.273 367.316 121.034C368.117 120.795 368.846 120.442 369.502 119.973C370.167 119.496 370.729 118.912 371.189 118.222C371.658 117.523 371.986 116.722 372.174 115.818H375.344C375.105 117.156 374.671 118.354 374.04 119.41C373.409 120.467 372.625 121.366 371.688 122.108C370.75 122.841 369.698 123.399 368.53 123.783C367.371 124.166 366.131 124.358 364.81 124.358C362.577 124.358 360.591 123.812 358.853 122.722C357.114 121.631 355.746 120.08 354.749 118.068C353.752 116.057 353.253 113.67 353.253 110.909C353.253 108.148 353.752 105.761 354.749 103.75C355.746 101.739 357.114 100.187 358.853 99.0966C360.591 98.0057 362.577 97.4602 364.81 97.4602C366.131 97.4602 367.371 97.652 368.53 98.0355C369.698 98.419 370.75 98.9815 371.688 99.723C372.625 100.456 373.409 101.351 374.04 102.408C374.671 103.456 375.105 104.653 375.344 106ZM201.17 97.8182V124H210.631C212.693 124 214.368 123.693 215.655 123.08C216.942 122.466 217.884 121.635 218.48 120.587C219.077 119.538 219.375 118.358 219.375 117.045C219.375 115.665 219.102 114.497 218.557 113.543C218.011 112.588 217.334 111.855 216.524 111.344C215.715 110.832 214.909 110.551 214.108 110.5V110.244C214.858 110.04 215.553 109.724 216.192 109.298C216.84 108.872 217.359 108.293 217.751 107.56C218.152 106.827 218.352 105.898 218.352 104.773C218.352 103.494 218.063 102.331 217.483 101.283C216.903 100.226 216.021 99.3863 214.837 98.7642C213.652 98.1335 212.148 97.8182 210.324 97.8182H201.17ZM210.631 121.187H204.341V112.085H210.784C211.926 112.085 212.915 112.315 213.75 112.776C214.585 113.227 215.229 113.832 215.68 114.591C216.132 115.341 216.358 116.159 216.358 117.045C216.358 118.196 215.919 119.176 215.041 119.986C214.172 120.787 212.702 121.187 210.631 121.187ZM210.222 109.324H204.341V100.631H210.324C212.063 100.631 213.332 101.035 214.134 101.845C214.935 102.646 215.335 103.622 215.335 104.773C215.335 105.693 215.105 106.494 214.645 107.176C214.193 107.858 213.58 108.386 212.804 108.761C212.037 109.136 211.176 109.324 210.222 109.324ZM224.585 97.8182V124H240.59V121.187H227.755V112.29H239.567V109.477H227.755V100.631H240.386V97.8182H224.585ZM247.174 124H243.85L253.464 97.8182H256.737L266.35 124H263.026L260.394 116.585H249.806L247.174 124ZM255.202 101.96L259.396 113.773H250.805L254.998 101.96H255.202ZM290.781 97.8182H287.61V114.898C287.61 116.176 287.329 117.314 286.766 118.311C286.212 119.3 285.411 120.08 284.363 120.651C283.315 121.213 282.062 121.494 280.604 121.494C279.147 121.494 277.894 121.213 276.846 120.651C275.806 120.08 275.005 119.3 274.443 118.311C273.88 117.314 273.599 116.176 273.599 114.898V97.8182H270.428V115.153C270.428 116.943 270.846 118.541 271.681 119.947C272.525 121.345 273.71 122.449 275.235 123.258C276.761 124.06 278.55 124.46 280.604 124.46C282.658 124.46 284.448 124.06 285.974 123.258C287.499 122.449 288.68 121.345 289.515 119.947C290.359 118.541 290.781 116.943 290.781 115.153V97.8182ZM295.68 100.631V97.8182H315.316V100.631H307.083V124H303.913V100.631H295.68ZM321.59 97.8182H317.96L327.42 113.21V124H330.59V113.21L340.05 97.8182H336.42L329.158 110.04H328.852L321.59 97.8182ZM389.314 97.8182H380.467V124H383.638V113.773H389.365C389.592 113.773 389.814 113.769 390.032 113.76L395.553 124H399.234L393.32 113.204C393.69 113.078 394.038 112.931 394.364 112.763C395.668 112.081 396.635 111.143 397.266 109.95C397.896 108.757 398.212 107.389 398.212 105.847C398.212 104.304 397.896 102.928 397.266 101.717C396.635 100.507 395.663 99.5568 394.351 98.8665C393.038 98.1676 391.359 97.8182 389.314 97.8182ZM383.638 110.909H389.263C390.661 110.909 391.786 110.705 392.638 110.295C393.499 109.886 394.121 109.307 394.504 108.557C394.896 107.798 395.092 106.895 395.092 105.847C395.092 104.798 394.896 103.882 394.504 103.098C394.112 102.314 393.486 101.709 392.625 101.283C391.764 100.848 390.626 100.631 389.212 100.631H383.638V110.909ZM403.495 97.8182H407.279L416.177 119.551H416.483L425.381 97.8182H429.165V124H426.199V104.108H425.944L417.762 124H414.898L406.716 104.108H406.461V124H403.495V97.8182ZM434.908 112.315H446.363V109.503H434.908V112.315ZM466.399 104.364C466.245 103.068 465.623 102.062 464.532 101.347C463.441 100.631 462.103 100.273 460.518 100.273C459.359 100.273 458.345 100.46 457.476 100.835C456.615 101.21 455.941 101.726 455.456 102.382C454.978 103.038 454.74 103.784 454.74 104.619C454.74 105.318 454.906 105.919 455.238 106.422C455.579 106.916 456.014 107.33 456.542 107.662C457.071 107.986 457.625 108.254 458.204 108.467C458.784 108.672 459.316 108.838 459.802 108.966L462.461 109.682C463.143 109.861 463.902 110.108 464.737 110.423C465.581 110.739 466.386 111.169 467.153 111.714C467.929 112.251 468.568 112.942 469.071 113.785C469.574 114.629 469.825 115.665 469.825 116.892C469.825 118.307 469.454 119.585 468.713 120.727C467.98 121.869 466.906 122.777 465.491 123.45C464.085 124.124 462.376 124.46 460.365 124.46C458.49 124.46 456.866 124.158 455.494 123.553C454.13 122.947 453.056 122.104 452.272 121.021C451.497 119.939 451.058 118.682 450.956 117.25H454.228C454.314 118.239 454.646 119.057 455.226 119.705C455.814 120.344 456.555 120.821 457.45 121.136C458.353 121.443 459.325 121.597 460.365 121.597C461.575 121.597 462.662 121.401 463.625 121.008C464.588 120.608 465.351 120.054 465.913 119.347C466.476 118.631 466.757 117.795 466.757 116.841C466.757 115.972 466.514 115.264 466.028 114.719C465.542 114.173 464.903 113.73 464.11 113.389C463.318 113.048 462.461 112.75 461.541 112.494L458.319 111.574C456.274 110.986 454.654 110.146 453.461 109.055C452.268 107.964 451.672 106.537 451.672 104.773C451.672 103.307 452.068 102.028 452.86 100.937C453.662 99.838 454.735 98.9858 456.082 98.3807C457.437 97.767 458.95 97.4602 460.62 97.4602C462.308 97.4602 463.808 97.7628 465.12 98.3679C466.433 98.9645 467.473 99.7826 468.24 100.822C469.015 101.862 469.424 103.043 469.467 104.364H466.399ZM476.418 97.8182H472.788L482.248 113.21V124H485.418V113.21L494.879 97.8182H491.248L483.987 110.04H483.68L476.418 97.8182ZM513.297 104.364C513.144 103.068 512.522 102.062 511.431 101.347C510.34 100.631 509.002 100.273 507.417 100.273C506.257 100.273 505.243 100.46 504.374 100.835C503.513 101.21 502.84 101.726 502.354 102.382C501.877 103.038 501.638 103.784 501.638 104.619C501.638 105.318 501.804 105.919 502.137 106.422C502.478 106.916 502.912 107.33 503.441 107.662C503.969 107.986 504.523 108.254 505.103 108.467C505.682 108.672 506.215 108.838 506.701 108.966L509.36 109.682C510.042 109.861 510.8 110.108 511.635 110.423C512.479 110.739 513.284 111.169 514.052 111.714C514.827 112.251 515.466 112.942 515.969 113.785C516.472 114.629 516.723 115.665 516.723 116.892C516.723 118.307 516.353 119.585 515.611 120.727C514.878 121.869 513.804 122.777 512.39 123.45C510.983 124.124 509.275 124.46 507.263 124.46C505.388 124.46 503.765 124.158 502.392 123.553C501.029 122.947 499.955 122.104 499.171 121.021C498.395 119.939 497.956 118.682 497.854 117.25H501.127C501.212 118.239 501.544 119.057 502.124 119.705C502.712 120.344 503.453 120.821 504.348 121.136C505.252 121.443 506.223 121.597 507.263 121.597C508.473 121.597 509.56 121.401 510.523 121.008C511.486 120.608 512.249 120.054 512.811 119.347C513.374 118.631 513.655 117.795 513.655 116.841C513.655 115.972 513.412 115.264 512.927 114.719C512.441 114.173 511.802 113.73 511.009 113.389C510.216 113.048 509.36 112.75 508.439 112.494L505.218 111.574C503.172 110.986 501.553 110.146 500.36 109.055C499.167 107.964 498.57 106.537 498.57 104.773C498.57 103.307 498.966 102.028 499.759 100.937C500.56 99.838 501.634 98.9858 502.98 98.3807C504.336 97.767 505.848 97.4602 507.519 97.4602C509.206 97.4602 510.706 97.7628 512.019 98.3679C513.331 98.9645 514.371 99.7826 515.138 100.822C515.914 101.862 516.323 103.043 516.365 104.364H513.297ZM520.504 97.8182V100.631H528.737V124H531.908V100.631H540.141V97.8182H520.504ZM545.034 97.8182H560.835V100.631H548.204V109.477H560.017V112.29H548.204V121.187H561.039V124H545.034V97.8182ZM570.333 97.8182H566.549V124H569.515V104.108H569.771L577.953 124H580.816L588.998 104.108H589.254V124H592.22V97.8182H588.436L579.538 119.551H579.231L570.333 97.8182Z" fill="black"/>
</svg>
