<svg xmlns="http://www.w3.org/2000/svg" viewBox="0 0 183.6 157.95"><g id="Слой_2" data-name="Слой 2"><g id="Слой_1-2" data-name="Слой 1"><path d="M149,4.74q-7.14,15-14.27,30l-.76-.3a11.68,11.68,0,0,1,.57-2.09Q141.69,17.08,149,1.88c.39-.81,1.39-1.79,2.11-1.8,10.59-.1,21.19,0,31.78,0,.14,0,.29.22.76.61a12.45,12.45,0,0,1-2,.6c-7.49.93-10.92,4.67-11.63,13-.31,3.77-.49,7.57-.5,11.36q-.06,53.43,0,106.86a73,73,0,0,0,.6,9.34c1,7.88,4.22,11.24,11.35,12.21a2.53,2.53,0,0,1,1.82,1H136.14c.48-.51.6-.75.73-.76,10.4-.79,12-7.18,12.65-15.59.42-5.55.31-11.15.31-16.73q-.06-56.79-.16-113.56V4.83Z"/><path d="M0,154.42c2-.43,4.08-.68,6-1.31,10.71-3.46,16.45-12.3,19.24-23.59a81.77,81.77,0,0,0,2.3-18.8c.23-32.16.14-64.32.06-96.49A7.24,7.24,0,0,0,25.9,10C21.53,5,16.37,1.59,10,.33A14.48,14.48,0,0,1,12.05,0C22.14,0,32.24-.06,42.33.12a4.79,4.79,0,0,1,3.44,2.26C63.69,35,81.45,67.73,99.46,100.29c1.67,3,1.46,5,.09,7.7-2,4-3.79,8.11-5.67,12.17-1.62,3.49-2.55,3.56-4.44.19Q70,85.6,50.5,50.82C43.65,38.64,36.7,26.53,29.14,14.53a20,20,0,0,0-.25,2.3c0,32.27-.07,64.54.1,96.82a65.51,65.51,0,0,0,1.89,15.17C34.42,143.11,42,152.88,56,155H.08Z"/><path d="M53.88,71.56c2.65,4.71,5.24,8.93,7.41,13.39.59,1.24.09,3.26-.17,4.87a69.07,69.07,0,0,0,3.58,36.07c6.3,16.36,16.45,28,32.87,30.66,12.5,2,23.63-2.51,33.62-10.86,1.08-.9,2.15-1.82,3.23-2.74l.67.83a42,42,0,0,1-3,3c-9.71,7.93-20.75,11.24-32.62,11.17S76.3,155,66.36,147.19c-13.25-10.39-19.34-25-20.11-42.74C45.8,94,47.48,84,52.12,74.8,52.59,73.86,53.12,73,53.88,71.56Z"/><path d="M133.41,42.19v38c-2.95-12.88-9.12-23-19.92-28.87s-21.7-5.56-32.71-.15L80.54,50c.67-.34,1.34-.74,2-1,10.33-4,20.79-3.4,31.3-1.09,3.62.8,7.22,1.7,10.83,2.54,5.78,1.36,7,.36,7.93-6.24.08-.63.14-1.26.22-1.9Z"/><path d="M110.5,83.64q3-6.42,6-12.83l.76.45L111.16,84Z"/></g></g></svg>
