<?xml version="1.0" encoding="utf-8"?>
<!-- Generator: Adobe Illustrator 24.0.0, SVG Export Plug-In . SVG Version: 6.00 Build 0)  -->
<svg version="1.1" id="Warstwa_1" xmlns="http://www.w3.org/2000/svg" xmlns:xlink="http://www.w3.org/1999/xlink" x="0px" y="0px"
	 viewBox="0 0 193.3 193" style="enable-background:new 0 0 193.3 193;" xml:space="preserve">
<g id="_x23_65cc49ff">
	<path d="M71,4.2c21.4-5.9,44.9-4.3,65.2,4.8c2.4,0.9,4.2,3.3,3.8,5.9c-0.3,3.8-4.9,6.1-8.1,4.2c-18.8-8.5-40.7-9.8-60.4-3.5
		c-19.2,6-36.1,19-46.7,36.1C14.3,68.1,9.8,88.2,12.2,107.5c2,16.4,8.9,32.1,19.6,44.6c13.1,15.6,32.1,26.3,52.3,29.2
		c16.4,2.5,33.4,0.1,48.5-6.9c16.5-7.6,30.5-20.7,39.2-36.7c9.3-16.9,12.5-36.9,9-55.9c-0.7-2.5,0.2-5.4,2.6-6.6
		c2.9-1.9,7.2-0.1,8,3.2c6,29-2.7,60.5-22.5,82.5c-16.1,18.2-39.2,30-63.4,32H88.4c-25.9-2.1-50.5-15.4-66.7-35.7
		C8.1,140.4,0.3,118.8,0.6,97c-0.3-21,7-42,19.8-58.6C33,22,51,9.7,71,4.2z"/>
	<path d="M162.5,38.7c4.5-2.3,10.5,1.2,10.4,6.3c0.5,5.5-6.6,9.6-11.1,6.4C157,48.6,157.5,40.9,162.5,38.7z"/>
	<path d="M145.9,54.9c4.6-4.8,13,1.1,11.6,7c-0.6,2.6-2.9,4.2-4.6,6c-22.7,22.7-45.4,45.3-68,68.1c-13.2-13.4-26.7-26.5-39.8-40
		C41.3,91.7,46,85,51,84.7c2.2-0.1,4.1,1.2,5.6,2.8c9.4,9.5,19,18.9,28.4,28.4C105.2,95.4,125.5,75.2,145.9,54.9z"/>
</g>
</svg>
